<svg width="194" height="194" viewBox="0 0 194 194" fill="none" xmlns="http://www.w3.org/2000/svg">
<rect width="194" height="194" rx="97" fill="#368EF5"/>
<path d="M53.1319 96.5C53.1319 95.2476 53.6396 94.0465 54.5433 93.1609C55.447 92.2753 56.6726 91.7778 57.9506 91.7778H67.588V82.3333C67.588 81.0809 68.0956 79.8798 68.9993 78.9942C69.903 78.1086 71.1286 77.6111 72.4066 77.6111C73.6846 77.6111 74.9103 78.1086 75.8139 78.9942C76.7176 79.8798 77.2253 81.0809 77.2253 82.3333V91.7778H86.8627C88.1406 91.7778 89.3663 92.2753 90.27 93.1609C91.1736 94.0465 91.6813 95.2476 91.6813 96.5C91.6813 97.7524 91.1736 98.9535 90.27 99.8391C89.3663 100.725 88.1406 101.222 86.8627 101.222H77.2253V110.667C77.2253 111.919 76.7176 113.12 75.8139 114.006C74.9103 114.891 73.6846 115.389 72.4066 115.389C71.1286 115.389 69.903 114.891 68.9993 114.006C68.0956 113.12 67.588 111.919 67.588 110.667V101.222H57.9506C56.6726 101.222 55.447 100.725 54.5433 99.8391C53.6396 98.9535 53.1319 97.7524 53.1319 96.5ZM125.364 110.667C125.364 113.171 124.348 115.574 122.541 117.345C120.734 119.116 118.282 120.111 115.727 120.111C113.171 120.111 110.719 119.116 108.912 117.345C107.105 115.574 106.089 113.171 106.089 110.667C106.089 108.162 107.105 105.76 108.912 103.988C110.719 102.217 113.171 101.222 115.727 101.222C118.282 101.222 120.734 102.217 122.541 103.988C124.348 105.76 125.364 108.162 125.364 110.667ZM125.364 91.7778C127.92 91.7778 130.371 90.7827 132.178 89.0116C133.986 87.2404 135.001 84.8382 135.001 82.3333C135.001 79.8285 133.986 77.4263 132.178 75.6551C130.371 73.8839 127.92 72.8889 125.364 72.8889C122.808 72.8889 120.357 73.8839 118.549 75.6551C116.742 77.4263 115.727 79.8285 115.727 82.3333C115.727 84.8382 116.742 87.2404 118.549 89.0116C120.357 90.7827 122.808 91.7778 125.364 91.7778ZM29 96.5C29 85.2283 33.5691 74.4183 41.7022 66.448C49.8353 58.4777 60.8661 54 72.3681 54H120.632C132.134 54 143.165 58.4777 151.298 66.448C159.431 74.4183 164 85.2283 164 96.5C164 107.772 159.431 118.582 151.298 126.552C143.165 134.522 132.134 139 120.632 139H72.3681C60.8661 139 49.8353 134.522 41.7022 126.552C33.5691 118.582 29 107.772 29 96.5ZM72.3681 63.4444C63.4221 63.4444 54.8426 66.9271 48.5169 73.1262C42.1911 79.3253 38.6373 87.7331 38.6373 96.5C38.6373 105.267 42.1911 113.675 48.5169 119.874C54.8426 126.073 63.4221 129.556 72.3681 129.556H120.632C129.578 129.556 138.157 126.073 144.483 119.874C150.809 113.675 154.363 105.267 154.363 96.5C154.363 87.7331 150.809 79.3253 144.483 73.1262C138.157 66.9271 129.578 63.4444 120.632 63.4444H72.3681Z" fill="white"/>
</svg>
