<svg width="194" height="194" viewBox="0 0 194 194" fill="none" xmlns="http://www.w3.org/2000/svg">
<rect width="194" height="194" rx="97" fill="#368EF5"/>
<path fill-rule="evenodd" clip-rule="evenodd" d="M125.572 54.2387C117.115 48.5877 107.172 45.5714 97 45.5714C83.3603 45.5714 70.2793 50.9898 60.6345 60.6345C50.9898 70.2792 45.5715 83.3603 45.5715 97C45.5715 107.172 48.5877 117.115 54.2387 125.572C59.8898 134.03 67.9218 140.621 77.3192 144.514C86.7165 148.406 97.0571 149.425 107.033 147.44C117.009 145.456 126.173 140.558 133.365 133.365C140.558 126.173 145.456 117.009 147.44 107.033C149.425 97.057 148.406 86.7165 144.514 77.3191C140.621 67.9218 134.03 59.8897 125.572 54.2387ZM63.6658 47.1118C73.5327 40.5189 85.1331 37 97 37C112.913 37 128.174 43.3214 139.426 54.5736C150.679 65.8258 157 81.087 157 97C157 108.867 153.481 120.467 146.888 130.334C140.295 140.201 130.925 147.891 119.961 152.433C108.997 156.974 96.9334 158.162 85.2946 155.847C73.6557 153.532 62.9648 147.818 54.5736 139.426C46.1825 131.035 40.468 120.344 38.1529 108.705C35.8378 97.0665 37.026 85.0025 41.5673 74.039C46.1085 63.0754 53.7989 53.7047 63.6658 47.1118ZM72.5408 125.745C73.3445 126.549 74.4346 127 75.5712 127C76.2364 126.999 76.8922 126.844 77.4869 126.546L128.915 100.831C129.626 100.475 130.224 99.9281 130.642 99.2514C131.06 98.5748 131.281 97.7953 131.281 97C131.281 96.2048 131.06 95.4253 130.642 94.7486C130.224 94.072 129.626 93.5249 128.915 93.1686L77.4869 67.4543C76.8337 67.1279 76.1079 66.9738 75.3784 67.0067C74.6489 67.0395 73.9399 67.2583 73.3186 67.6421C72.6974 68.0259 72.1845 68.5621 71.8287 69.1998C71.4729 69.8375 71.2859 70.5555 71.2855 71.2858V122.714C71.2855 123.851 71.737 124.941 72.5408 125.745ZM117.417 97L79.8569 115.78V78.22L117.417 97Z" fill="white"/>
</svg>
