<svg width="194" height="194" viewBox="0 0 194 194" fill="none" xmlns="http://www.w3.org/2000/svg">
<rect width="194" height="194" rx="97" fill="#368EF5"/>
<path d="M117.625 69.5H117.694" stroke="white" stroke-width="8" stroke-linecap="round" stroke-linejoin="round"/>
<path d="M131.375 42H62.625C51.2341 42 42 51.2341 42 62.625V131.375C42 142.766 51.2341 152 62.625 152H131.375C142.766 152 152 142.766 152 131.375V62.625C152 51.2341 142.766 42 131.375 42Z" stroke="white" stroke-width="8" stroke-linecap="round" stroke-linejoin="round"/>
<path d="M42 117.625L69.5 90.1249C72.6354 87.1079 76.1921 85.5195 79.8125 85.5195C83.4329 85.5195 86.9896 87.1079 90.125 90.1249L124.5 124.5" stroke="white" stroke-width="8" stroke-linecap="round" stroke-linejoin="round"/>
<path d="M110.75 110.75L117.625 103.875C120.76 100.858 124.317 99.2695 127.937 99.2695C131.558 99.2695 135.115 100.858 138.25 103.875L152 117.625" stroke="white" stroke-width="8" stroke-linecap="round" stroke-linejoin="round"/>
</svg>
