<svg width="194" height="194" viewBox="0 0 194 194" fill="none" xmlns="http://www.w3.org/2000/svg">
<rect width="194" height="194" rx="97" fill="#368EF5"/>
<path d="M71.5699 99.8862H76.3546C81.0095 99.8862 83.9566 102.61 83.9927 106.371C84.0503 110.241 80.9158 112.993 76.1672 112.993C71.8582 112.965 68.6948 110.652 68.4715 107.546H60.6172C60.8334 114.132 66.3169 119.709 76.1312 119.709C85.0663 119.709 92.5963 114.953 92.5026 106.753C92.409 99.8862 87.1199 96.8093 83.1928 96.4346V95.9879C86.3633 95.4834 91.2993 92.1904 91.1768 86.0799C91.0831 79.5515 85.4122 74.7669 76.3834 74.8029C66.9438 74.839 61.662 80.092 61.4386 86.8365H69.3866C69.5451 84.0191 72.1464 81.425 76.1312 81.425C79.9646 81.425 82.8181 83.8029 82.8181 87.2833C82.8469 90.7349 80.0583 93.3001 76.1312 93.3001H71.5771V99.8862H71.5699ZM97.5539 75.6244V118.852H113.327C126.37 118.852 132.675 110.875 132.675 97.1264C132.675 83.4787 126.471 75.6244 113.327 75.6244H97.5539ZM106.107 82.5924H112.189C120.202 82.5924 123.869 87.5355 123.869 97.2921C123.869 107.041 120.23 111.848 112.189 111.848H106.107V82.5924Z" fill="white"/>
<path d="M139.881 61.2058C141.792 61.2058 143.624 61.9649 144.976 63.3163C146.327 64.6676 147.086 66.5004 147.086 68.4115V126.058C147.086 127.969 146.327 129.801 144.976 131.153C143.624 132.504 141.792 133.263 139.881 133.263H53.4115C51.5004 133.263 49.6676 132.504 48.3163 131.153C46.9649 129.801 46.2058 127.969 46.2058 126.058V68.4115C46.2058 66.5004 46.9649 64.6676 48.3163 63.3163C49.6676 61.9649 51.5004 61.2058 53.4115 61.2058H139.881ZM53.4115 54C49.5893 54 45.9237 55.5183 43.221 58.221C40.5184 60.9237 39 64.5893 39 68.4115V126.058C39 129.88 40.5184 133.545 43.221 136.248C45.9237 138.951 49.5893 140.469 53.4115 140.469H139.881C143.703 140.469 147.368 138.951 150.071 136.248C152.774 133.545 154.292 129.88 154.292 126.058V68.4115C154.292 64.5893 152.774 60.9237 150.071 58.221C147.368 55.5183 143.703 54 139.881 54H53.4115Z" fill="white"/>
</svg>
