<svg width="194" height="194" viewBox="0 0 194 194" fill="none" xmlns="http://www.w3.org/2000/svg">
<rect width="194" height="194" rx="97" fill="#FB8A05"/>
<path d="M83.25 42C74.4958 42 67.4054 48.3571 65.6317 56.6117C54.9433 58.5183 46.5833 67.4375 46.5833 78.6667C46.5833 79.7942 46.7071 80.7979 46.8721 81.82C43.9158 86.165 42 91.2846 42 97C42 105.236 46.1021 112.166 51.8817 117.194C51.4692 118.826 51.1667 120.453 51.1667 122.208C51.1667 133.543 60.4571 142.833 71.7917 142.833H72.0804C74.7479 148.008 79.3679 152 85.5417 152C87.6803 151.995 89.7962 151.561 91.7643 150.725C93.7325 149.888 95.5128 148.665 97 147.128C98.4872 148.665 100.268 149.888 102.236 150.725C104.204 151.561 106.32 151.995 108.458 152C114.637 152 119.252 148.008 121.924 142.833H122.208C132.97 142.833 141.793 134.455 142.691 123.927H142.833C142.833 123.638 142.71 123.354 142.691 123.065C142.71 122.781 142.833 122.493 142.833 122.208C142.833 120.508 142.224 119.055 141.83 117.483C147.774 112.432 152 105.383 152 97C152 91.2892 150.084 86.1696 147.128 81.8154C147.293 80.7979 147.417 79.7988 147.417 78.6667C147.417 67.4375 139.057 58.5229 128.368 56.6071C126.595 48.3617 119.504 42 110.75 42C105.25 42 100.364 44.5621 97 48.4442C93.6358 44.5667 88.75 42 83.25 42ZM83.25 51.1667C88.3696 51.1667 92.4167 55.2138 92.4167 60.3333V69.5C92.4167 77.145 86.3117 83.25 78.6667 83.25V92.4167C83.8596 92.4167 88.5667 90.6292 92.4167 87.6912V135.958C92.4167 139.808 89.3917 142.833 85.5417 142.833C83.9381 142.856 82.3791 142.305 81.145 141.281C79.9108 140.257 79.0824 138.826 78.8088 137.246L77.9517 132.81L73.5104 133.525C71.8785 133.782 70.2101 133.682 68.6207 133.231C67.0313 132.78 65.5589 131.989 64.3056 130.913C63.0522 129.837 62.0478 128.501 61.3619 126.998C60.676 125.495 60.3251 123.86 60.3333 122.208C60.3333 120.792 60.5625 119.468 61.0483 118.198C61.085 118.093 61.1583 118.015 61.1904 117.909C61.8937 116.162 63.022 114.618 64.4731 113.418C65.9242 112.217 67.6521 111.398 69.5 111.034L67.6392 102.014C62.9614 102.938 58.7549 105.471 55.75 109.173C52.77 105.822 51.1371 101.485 51.1667 97C51.1588 92.8784 52.5756 88.8807 55.1771 85.6838L56.6117 83.965L56.1808 81.6733C55.9211 80.6912 55.7765 79.6822 55.75 78.6667C55.75 71.0217 61.855 64.9167 69.5 64.9167H74.0833V60.3333C74.0833 55.2138 78.1304 51.1667 83.25 51.1667ZM110.75 51.1667C115.87 51.1667 119.917 55.2138 119.917 60.3333V64.9167H124.5C132.145 64.9167 138.25 71.0217 138.25 78.6667C138.25 79.6521 138.067 80.6008 137.819 81.6733L137.393 83.965L138.823 85.6838C141.424 88.8807 142.841 92.8784 142.833 97C142.833 102.5 140.487 107.404 136.673 110.75C133.543 107.977 129.551 106.167 125.073 106.167C120.742 106.167 116.837 107.707 113.757 110.319L119.632 117.341C121.145 116.038 123.077 115.325 125.073 115.333C129.496 115.333 133.02 118.647 133.525 122.923C133.149 128.96 128.332 133.667 122.208 133.667C121.796 133.667 121.292 133.648 120.49 133.525L116.048 132.805L115.191 137.251C114.917 138.83 114.088 140.26 112.854 141.283C111.62 142.306 110.061 142.856 108.458 142.833C104.608 142.833 101.583 139.808 101.583 135.958V87.6912C105.518 90.7428 110.354 92.4046 115.333 92.4167V83.25C107.688 83.25 101.583 77.145 101.583 69.5V60.3333C101.583 55.2138 105.63 51.1667 110.75 51.1667Z" fill="white"/>
</svg>
