<svg width="37" height="38" viewBox="0 0 37 38" fill="none" xmlns="http://www.w3.org/2000/svg">
<path d="M3.08333 37.1958C3.08333 37.1958 0 37.1958 0 34.1125C0 31.0291 3.08333 21.7791 18.5 21.7791C33.9167 21.7791 37 31.0291 37 34.1125C37 37.1958 33.9167 37.1958 33.9167 37.1958H3.08333ZM18.5 18.6958C20.9533 18.6958 23.306 17.7212 25.0407 15.9865C26.7754 14.2518 27.75 11.8991 27.75 9.4458C27.75 6.99255 26.7754 4.63977 25.0407 2.90506C23.306 1.17035 20.9533 0.195801 18.5 0.195801C16.0467 0.195801 13.694 1.17035 11.9593 2.90506C10.2246 4.63977 9.25 6.99255 9.25 9.4458C9.25 11.8991 10.2246 14.2518 11.9593 15.9865C13.694 17.7212 16.0467 18.6958 18.5 18.6958V18.6958Z" fill="#FB8A05"/>
</svg>
