<svg width="65" height="110" viewBox="0 0 65 110" fill="none" xmlns="http://www.w3.org/2000/svg">
<line x1="44.6926" y1="26.1279" x2="11.1966" y2="25.8608" stroke="white" stroke-opacity="0.5" stroke-width="3"/>
<path opacity="0.3" d="M63.9307 0.418945C57.5756 1.7647 44.8324 8.59288 44.7005 25.1395C44.5685 41.6862 57.2026 48.5421 63.5361 49.9018" stroke="white" stroke-width="4"/>
<path opacity="0.3" d="M63.876 7.27051C59.3003 8.24375 50.125 13.1814 50.0296 25.1459C49.9342 37.1103 59.0306 42.0674 63.5907 43.0504" stroke="white" stroke-width="4"/>
<path opacity="0.3" d="M63.8154 14.8828C61.0195 15.4406 55.4138 18.2744 55.359 25.1476C55.3042 32.0208 60.8645 34.8712 63.6515 35.4372" stroke="white" stroke-width="4"/>
<line y1="-1.5" x2="33.4971" y2="-1.5" transform="matrix(-0.688319 -0.725408 -0.725408 0.688319 22.729 77.4248)" stroke="white" stroke-opacity="0.5" stroke-width="3"/>
<path opacity="0.3" d="M18.1572 108C14.8034 102.437 11.0965 88.4628 23.1 77.0731C35.1034 65.6833 48.7372 70.2379 54.0536 73.9389" stroke="white" stroke-width="4"/>
<path opacity="0.3" d="M23.1274 103.284C20.7158 99.2757 18.0623 89.1998 26.7417 80.9641C35.4212 72.7285 45.2525 75.9935 49.0833 78.6554" stroke="white" stroke-width="4"/>
<path opacity="0.3" d="M28.6499 98.0439C27.1493 95.6198 25.3945 89.5886 30.3806 84.8575C35.3666 80.1264 41.2449 82.2449 43.5607 83.8955" stroke="white" stroke-width="4"/>
</svg>
