<svg width="109" height="81" viewBox="0 0 109 81" fill="none" xmlns="http://www.w3.org/2000/svg">
<line x1="76.1429" y1="40.7056" x2="53.3705" y2="17.6147" stroke="white" stroke-opacity="0.5" stroke-width="3"/>
<path opacity="0.3" d="M106.943 36.2109C101.668 32.787 88.2651 28.7514 76.8584 40.0007C65.4518 51.25 69.4213 64.5888 72.8318 69.8521" stroke="white" stroke-width="4"/>
<path opacity="0.3" d="M102.22 40.8691C98.4189 38.4068 88.7542 35.5157 80.5063 43.6498C72.2585 51.7839 75.1021 61.402 77.5549 65.1943" stroke="white" stroke-width="4"/>
<path opacity="0.3" d="M96.9724 46.0449C94.6749 44.515 88.8952 42.6234 84.1571 47.2962C79.419 51.969 81.2802 57.725 82.803 60.0189" stroke="white" stroke-width="4"/>
<line y1="-1.5" x2="32.4311" y2="-1.5" transform="matrix(0.0251957 -0.999683 -0.999683 -0.0251957 26.043 60.8066)" stroke="white" stroke-opacity="0.5" stroke-width="3"/>
<path opacity="0.3" d="M2 78.6328C3.50627 72.5266 10.5227 60.415 26.5381 60.8187C42.5536 61.2223 48.782 73.6677 49.8943 79.8399" stroke="white" stroke-width="4"/>
<path opacity="0.3" d="M8.63159 78.7998C9.72027 74.4034 14.7927 65.6836 26.3731 65.9755C37.9535 66.2674 42.4581 75.2285 43.2629 79.6726" stroke="white" stroke-width="4"/>
<path opacity="0.3" d="M16 78.9854C16.6295 76.2978 19.5516 70.9645 26.2042 71.1322C32.8568 71.2999 35.4363 76.7718 35.8946 79.4868" stroke="white" stroke-width="4"/>
</svg>
