<svg width="194" height="194" viewBox="0 0 194 194" fill="none" xmlns="http://www.w3.org/2000/svg">
<rect width="194" height="194" rx="97" fill="#368EF5"/>
<path d="M120.171 59.5984V63.0984H123.671H145.407C147.566 63.0984 149.629 63.9469 151.143 65.4449C152.657 66.9416 153.5 68.9633 153.5 71.063V130.535C153.5 132.635 152.657 134.657 151.143 136.154C149.629 137.652 147.566 138.5 145.407 138.5H102.986C121.187 135.44 135.135 119.735 135.135 100.802C135.135 79.6752 117.765 62.553 96.4971 62.553C75.2278 62.553 57.8709 79.6767 57.8709 100.802C57.8709 119.709 71.7742 135.411 89.9422 138.5H47.5928C45.434 138.5 43.3713 137.652 41.8565 136.154C40.3431 134.657 39.5 132.635 39.5 130.535V71.063C39.5 68.9633 40.3431 66.9416 41.8565 65.4449C43.3713 63.9469 45.434 63.0984 47.5928 63.0984H69.3293H72.8293V59.5984V54.5H120.171V59.5984ZM96.4975 81.0118L96.9806 81.0118C102.137 81.1336 107.049 83.2122 110.694 86.8162C114.452 90.5313 116.556 95.5621 116.557 100.8C116.557 106.037 114.454 111.069 110.698 114.785C106.94 118.502 101.834 120.597 96.5025 120.598C93.8636 120.598 91.2514 120.085 88.8154 119.087C86.3794 118.09 84.1685 116.628 82.3078 114.789C80.4473 112.949 78.9734 110.767 77.9684 108.369C76.9635 105.971 76.4466 103.401 76.4463 100.807C76.446 98.2135 76.9622 95.6441 77.9665 93.2454C78.9709 90.8467 80.4442 88.6645 82.3043 86.8245C84.1645 84.9845 86.3751 83.5227 88.8108 82.5246C91.2466 81.5265 93.8587 81.0121 96.4975 81.0118Z" stroke="white" stroke-width="7"/>
</svg>
