<svg width="192" height="192" viewBox="0 0 192 192" fill="none" xmlns="http://www.w3.org/2000/svg">
<rect width="192" height="192" rx="96" fill="#368EF5"/>
<path d="M36 57.3023C36 52.183 38.1071 47.2734 41.8579 43.6535C45.6086 40.0336 50.6957 38 56 38H136C141.304 38 146.391 40.0336 150.142 43.6535C153.893 47.2734 156 52.183 156 57.3023V115.209C156 120.329 153.893 125.238 150.142 128.858C146.391 132.478 141.304 134.512 136 134.512H116V139.337C116 140.617 116.527 141.844 117.464 142.749C118.402 143.654 119.674 144.163 121 144.163H126C127.326 144.163 128.598 144.671 129.536 145.576C130.473 146.481 131 147.709 131 148.988C131 150.268 130.473 151.496 129.536 152.401C128.598 153.306 127.326 153.814 126 153.814H66C64.6739 153.814 63.4021 153.306 62.4645 152.401C61.5268 151.496 61 150.268 61 148.988C61 147.709 61.5268 146.481 62.4645 145.576C63.4021 144.671 64.6739 144.163 66 144.163H71C72.3261 144.163 73.5979 143.654 74.5355 142.749C75.4732 141.844 76 140.617 76 139.337V134.512H56C50.6957 134.512 45.6086 132.478 41.8579 128.858C38.1071 125.238 36 120.329 36 115.209V57.3023ZM46 115.209C46 117.769 47.0536 120.224 48.9289 122.034C50.8043 123.844 53.3478 124.86 56 124.86H136C138.652 124.86 141.196 123.844 143.071 122.034C144.946 120.224 146 117.769 146 115.209H46ZM146 105.558V57.3023C146 54.7427 144.946 52.2879 143.071 50.4779C141.196 48.668 138.652 47.6512 136 47.6512H56C53.3478 47.6512 50.8043 48.668 48.9289 50.4779C47.0536 52.2879 46 54.7427 46 57.3023V105.558H146ZM106 139.337V134.512H86V139.337C86 141.026 85.7 142.657 85.15 144.163H106.9C106.318 142.615 106.014 140.983 106 139.337V139.337Z" fill="white"/>
</svg>
